<svg id="visual" viewBox="0 0 1920 1080" width="1920" height="1080" xmlns="http://www.w3.org/2000/svg" xmlns:xlink="http://www.w3.org/1999/xlink" version="1.1"><rect x="0" y="0" width="1920" height="1080" fill="#2924c7"></rect><defs><linearGradient id="grad1_0" x1="43.8%" y1="0%" x2="100%" y2="100%"><stop offset="14.444444444444446%" stop-color="#423cfa" stop-opacity="1"></stop><stop offset="85.55555555555554%" stop-color="#423cfa" stop-opacity="1"></stop></linearGradient></defs><defs><linearGradient id="grad1_1" x1="43.8%" y1="0%" x2="100%" y2="100%"><stop offset="14.444444444444446%" stop-color="#423cfa" stop-opacity="1"></stop><stop offset="85.55555555555554%" stop-color="#2924c7" stop-opacity="1"></stop></linearGradient></defs><defs><linearGradient id="grad2_0" x1="0%" y1="0%" x2="56.3%" y2="100%"><stop offset="14.444444444444446%" stop-color="#423cfa" stop-opacity="1"></stop><stop offset="85.55555555555554%" stop-color="#423cfa" stop-opacity="1"></stop></linearGradient></defs><defs><linearGradient id="grad2_1" x1="0%" y1="0%" x2="56.3%" y2="100%"><stop offset="14.444444444444446%" stop-color="#2924c7" stop-opacity="1"></stop><stop offset="85.55555555555554%" stop-color="#423cfa" stop-opacity="1"></stop></linearGradient></defs><g transform="translate(1920, 0)"><path d="M0 864C-111.8 851 -223.6 837.9 -330.6 798.2C-437.6 758.5 -539.8 692.2 -604.6 604.6C-669.3 517 -696.6 408.2 -733.6 303.9C-770.6 199.5 -817.3 99.8 -864 0L0 0Z" fill="#3630e0"></path><path d="M0 432C-55.9 425.5 -111.8 419 -165.3 399.1C-218.8 379.3 -269.9 346.1 -302.3 302.3C-334.7 258.5 -348.3 204.1 -366.8 151.9C-385.3 99.8 -408.6 49.9 -432 0L0 0Z" fill="#423cfa"></path></g><g transform="translate(0, 1080)"><path d="M0 -864C130.2 -868.8 260.4 -873.6 330.6 -798.2C400.8 -722.8 411 -567.2 482.2 -482.2C553.4 -397.3 685.6 -383.2 759.4 -314.6C833.2 -246 848.6 -123 864 0L0 0Z" fill="#3630e0"></path><path d="M0 -432C65.1 -434.4 130.2 -436.8 165.3 -399.1C200.4 -361.4 205.5 -283.6 241.1 -241.1C276.7 -198.7 342.8 -191.6 379.7 -157.3C416.6 -123 424.3 -61.5 432 0L0 0Z" fill="#423cfa"></path></g></svg>